<?xml version="1.0" encoding="utf-8"?>
<svg viewBox="0 0 500 500" xmlns="http://www.w3.org/2000/svg">
  <path style="stroke: rgb(0, 0, 0); stroke-miterlimit: 8; stroke-width: 0px; fill-rule: nonzero; fill: rgb(2, 206, 213);" d="M 0 294.488 C 3.961 300.48 25.413 264.088 27.196 257.8 C 27.26 257.578 53.172 320.296 64.943 323.086 C 80.001 311.326 113.006 268.055 114.894 260.819 C 117.357 273.573 150.041 313.09 165.645 319.481 C 212.548 304.748 230.769 254.879 231.085 257.794 C 231.401 260.709 293.365 317.054 300 311.9 C 300 313.471 367.356 269.157 367.356 262.142 C 372.284 272.984 419.294 308.664 418.033 305.889 C 421.873 311.953 482.671 254.991 484.253 246.521 C 483.523 249.279 499.836 273.31 500 272.692 L 500 472.692 L 0 472.692 L 0 294.488 Z"/>
</svg>