<?xml version="1.0" encoding="utf-8"?>
<svg viewBox="0 0 500 500" xmlns="http://www.w3.org/2000/svg">
  <path style="stroke: rgb(0, 0, 0); stroke-miterlimit: 8; stroke-width: 0px; fill: rgb(98, 250, 255); fill-rule: nonzero;" d="M 0 321.796 C 3.961 327.788 25.413 291.396 27.196 285.108 C 27.26 284.886 53.172 347.604 64.943 350.394 C 80.001 338.634 113.006 295.363 114.894 288.127 C 117.357 300.881 150.041 340.398 165.645 346.789 C 212.548 332.056 230.769 282.187 231.085 285.102 C 231.401 288.017 293.365 344.362 300 339.208 C 300 340.779 367.356 296.465 367.356 289.45 C 372.284 300.292 419.294 335.972 418.033 333.197 C 421.873 339.261 482.671 282.299 484.253 273.829 C 483.523 276.587 499.836 300.618 500 300 L 500 500 L 0 500 L 0 321.796 Z"/>
</svg>