<?xml version="1.0" encoding="utf-8"?>
<svg viewBox="0 0 500 500" xmlns="http://www.w3.org/2000/svg" xmlns:bx="https://boxy-svg.com">
  <ellipse style="fill: rgb(216, 216, 216); stroke: rgb(140, 154, 159); stroke-width: 50px; paint-order: fill; fill-opacity: 0;" cx="249.537" cy="249.646" rx="224.119" ry="224.119" bx:origin="0.5 0.504266"/>
  <path style="stroke: rgb(0, 0, 0); stroke-width: 0px; fill: rgb(87, 87, 87); paint-order: fill;" d="M 54.166 357.005 L 68.289 357.005 L 77.959 366.677 L 78.153 380.025 L 69.062 390.083 L 53.78 390.083 L 45.075 379.444 L 44.881 366.29 L 54.166 357.005 Z" transform="matrix(0.838671, -0.544639, 0.544639, 0.838671, -193.522151, 93.768208)"/>
  <path style="stroke: rgb(0, 0, 0); stroke-width: 0px; fill: rgb(87, 87, 87); paint-order: fill;" d="M 172.44 444.423 L 186.562 444.423 L 196.232 454.096 L 196.427 467.444 L 187.336 477.502 L 172.053 477.502 L 163.349 466.863 L 163.155 453.709 L 172.44 444.423 Z" transform="matrix(0.866025, -0.5, 0.5, 0.866025, -206.393821, 151.652758)"/>
  <path style="stroke: rgb(0, 0, 0); stroke-width: 0px; fill: rgb(87, 87, 87); paint-order: fill;" d="M 311.933 443.952 L 326.055 443.952 L 335.725 453.624 L 335.92 466.972 L 326.828 477.031 L 311.546 477.031 L 302.841 466.392 L 302.648 453.237 L 311.933 443.952 Z" transform="matrix(0.438371, 0.898794, -0.898794, 0.438371, 593.206146, -28.345248)"/>
  <path style="stroke: rgb(0, 0, 0); stroke-width: 0px; fill: rgb(87, 87, 87); paint-order: fill;" d="M 465.551 233.768 L 479.673 233.768 L 489.343 243.441 L 489.538 256.788 L 480.446 266.847 L 465.164 266.847 L 456.459 256.207 L 456.266 243.053 L 465.551 233.768 Z" transform="matrix(0.809017, 0.587785, -0.587785, 0.809017, 237.443276, -230.160328)"/>
  <path style="stroke: rgb(0, 0, 0); stroke-width: 0px; fill: rgb(87, 87, 87); paint-order: fill;" d="M 18.541 230.782 L 32.662 230.782 L 42.333 240.454 L 42.527 253.802 L 33.436 263.86 L 18.154 263.86 L 9.45 253.221 L 9.256 240.066 L 18.541 230.782 Z"/>
  <path style="stroke: rgb(0, 0, 0); stroke-width: 0px; fill: rgb(87, 87, 87); paint-order: fill;" d="M 54.794 108.994 L 68.916 108.994 L 78.587 118.666 L 78.781 132.014 L 69.689 142.072 L 54.408 142.072 L 45.703 131.433 L 45.509 118.279 L 54.794 108.994 Z" transform="matrix(0.866025, 0.5, -0.5, 0.866025, 71.09235, -14.254266)"/>
  <path style="stroke: rgb(0, 0, 0); stroke-width: 0px; fill: rgb(87, 87, 87); paint-order: fill;" d="M 172.44 20.11 L 186.562 20.11 L 196.232 29.782 L 196.427 43.131 L 187.336 53.189 L 172.053 53.189 L 163.349 42.55 L 163.155 29.395 L 172.44 20.11 Z" transform="matrix(0.956305, 0.292372, -0.292372, 0.956305, 18.571289, -50.964393)"/>
  <path style="stroke: rgb(0, 0, 0); stroke-width: 0px; fill: rgb(87, 87, 87); paint-order: fill;" d="M 311.933 19.955 L 326.055 19.955 L 335.725 29.627 L 335.92 42.975 L 326.828 53.033 L 311.546 53.033 L 302.841 42.394 L 302.648 29.24 L 311.933 19.955 Z" transform="matrix(0.970296, 0.241922, -0.241922, 0.970296, 18.312798, -76.157767)"/>
  <path style="stroke: rgb(0, 0, 0); stroke-width: 0px; fill: rgb(87, 87, 87); paint-order: fill;" d="M 422.715 365.709 L 436.837 365.709 L 446.508 375.381 L 446.701 388.729 L 437.61 398.787 L 422.329 398.787 L 413.624 388.148 L 413.43 374.994 L 422.715 365.709 Z" transform="matrix(0.642788, -0.766044, 0.766044, 0.642788, -139.194233, 465.993019)"/>
  <path style="stroke: rgb(0, 0, 0); stroke-width: 0px; fill: rgb(87, 87, 87); paint-order: fill;" d="M 431.392 113.672 L 445.514 113.672 L 455.184 123.344 L 455.379 136.692 L 446.288 146.75 L 431.005 146.75 L 422.3 136.111 L 422.108 122.956 L 431.392 113.672 Z" transform="matrix(0.956305, -0.292372, 0.292372, 0.956305, -18.899007, 133.965789)"/>
</svg>